<svg width="48" height="48" viewBox="0 0 48 48" fill="none" xmlns="http://www.w3.org/2000/svg">
<path d="M24.0001 19.6284L6.51398 32.743L5.70654 35.1795C6.99103 36.9833 10.4127 40.8859 13.8234 42.0666C18.0868 43.5424 25.1378 43.6244 27.4335 43.3784C29.2701 43.1816 33.2274 41.9846 34.9765 41.4107L38.9119 39.115L41.4536 36.4094L42.1108 33.992L24.0001 19.6284Z" fill="white"/>
<path d="M20.8391 31.5755C22.9336 33.6712 24.876 33.6731 26.9744 31.5831C28.8082 29.4799 27.4373 27.7177 23.9115 27.7119C20.3848 27.709 19.01 29.4695 20.8391 31.5755Z" fill="black"/>
<path d="M20.8391 31.5755C22.9336 33.6712 24.876 33.6731 26.9744 31.5831C28.8082 29.4799 27.4373 27.7177 23.9115 27.7119C20.3848 27.709 19.01 29.4695 20.8391 31.5755Z" fill="black" fill-opacity="0.2"/>
<path fill-rule="evenodd" clip-rule="evenodd" d="M28.4761 8.80511C30.1529 9.02019 31.7099 9.35693 33.1431 9.81057C42.2162 3.52934 44.4353 3.42839 45.4385 4.30083C45.7806 4.56988 46.0259 5.05175 46.1436 5.71395C46.6943 8.50098 45.2173 14.9218 43.5409 18.8828C44.4233 21.0568 44.8703 23.5469 44.8583 26.3279C44.8592 26.8549 44.8438 27.3715 44.8124 27.8774C45.5494 27.8014 46.3232 27.7464 47.1433 27.717C47.5064 27.7038 47.8101 27.9873 47.8229 28.3498C47.8357 28.7115 47.5527 29.0165 47.1902 29.0293C46.3059 29.0608 45.4764 29.1239 44.6887 29.2118C44.6002 29.9254 44.4769 30.6158 44.319 31.2827C45.27 31.341 46.2727 31.4434 47.3469 31.6051C47.7052 31.6584 47.9528 31.9936 47.8983 32.3531C47.845 32.7114 47.5097 32.9579 47.1514 32.904C46.0147 32.7328 44.959 32.6309 43.9594 32.5787C43.7576 33.2089 43.5219 33.8157 43.2525 34.3987C44.5277 34.6333 45.8777 34.957 47.352 35.4218C47.6987 35.5326 47.8901 35.9002 47.7804 36.2464C47.6715 36.592 47.3027 36.7838 46.9564 36.6748C45.39 36.1807 43.9648 35.8518 42.6182 35.6209C41.9855 36.7129 41.2195 37.7097 40.3214 38.6083C36.7298 42.2033 31.0825 44.0983 23.9909 44.0902C16.829 44.0827 11.2827 42.205 7.70602 38.621C6.80248 37.7151 6.02534 36.7004 5.37795 35.5797C4.03168 35.8076 2.60642 36.1333 1.03953 36.6238C0.797739 36.6993 0.544914 36.628 0.377334 36.4603C0.305441 36.3879 0.248611 36.298 0.216137 36.1931C0.107698 35.8468 0.300795 35.4792 0.646971 35.3702C2.12388 34.9079 3.47551 34.5869 4.75203 34.3551C4.48461 33.7716 4.25067 33.1639 4.0504 32.5331C3.04761 32.5829 1.9881 32.6826 0.846762 32.8517C0.63222 32.8835 0.426945 32.8082 0.284883 32.6656C0.188621 32.5693 0.121936 32.4429 0.100478 32.2985C0.0471332 31.9395 0.295312 31.6056 0.653665 31.5529C1.73269 31.3926 2.73931 31.2922 3.69373 31.2361C3.53722 30.5686 3.41513 29.878 3.32763 29.1654C2.53908 29.0754 1.7084 29.0105 0.822756 28.9769C0.650543 28.9699 0.495716 28.8975 0.382643 28.7843C0.258553 28.6596 0.184337 28.4852 0.191294 28.2949C0.205208 27.9331 0.510803 27.6502 0.873204 27.6641C1.69402 27.6953 2.46833 27.7522 3.20581 27.8299C3.17499 27.3236 3.16047 26.8069 3.16228 26.2804C3.15793 23.5371 3.59257 21.0784 4.46007 18.9225C2.77628 14.9649 1.28756 8.51035 1.84004 5.71395C1.95833 5.05175 2.20304 4.56988 2.54515 4.30083C3.54902 3.42827 5.76864 3.52937 14.8442 9.81307C17.5242 8.95475 20.6094 8.51584 24.0308 8.51984C24.1765 8.51984 24.3139 8.52034 24.4513 8.52846C25.8598 8.54819 27.2137 8.64212 28.4761 8.80511ZM6.78887 35.3702C7.94395 35.2217 9.0542 35.1315 10.1637 35.0525C10.5249 35.027 10.7981 34.7127 10.772 34.3509C10.7464 33.989 10.4321 33.717 10.0703 33.7426C9.88641 33.7556 9.70244 33.7691 9.51833 33.783C15.6272 31.0014 20.6683 26.8315 24.0126 21.7915C27.3457 26.8392 32.3776 31.0203 38.4805 33.8152C38.2975 33.8009 38.1148 33.7872 37.9321 33.7738C37.5702 33.7471 37.2554 34.0191 37.2288 34.3804C37.2143 34.5787 37.2885 34.7624 37.419 34.893C37.5268 35.0007 37.6723 35.0721 37.8359 35.0837C38.9461 35.1654 40.0571 35.258 41.213 35.4093C40.6934 36.2313 40.0876 36.9889 39.3965 37.6806C36.0559 41.0223 30.7305 42.7846 23.9954 42.7771C13.739 42.766 8.98625 38.8522 6.78887 35.3702Z" fill="black"/>
<path fill-rule="evenodd" clip-rule="evenodd" d="M28.4761 8.80511C30.1529 9.02019 31.7099 9.35693 33.1431 9.81057C42.2162 3.52934 44.4353 3.42839 45.4385 4.30083C45.7806 4.56988 46.0259 5.05175 46.1436 5.71395C46.6943 8.50098 45.2173 14.9218 43.5409 18.8828C44.4233 21.0568 44.8703 23.5469 44.8583 26.3279C44.8592 26.8549 44.8438 27.3715 44.8124 27.8774C45.5494 27.8014 46.3232 27.7464 47.1433 27.717C47.5064 27.7038 47.8101 27.9873 47.8229 28.3498C47.8357 28.7115 47.5527 29.0165 47.1902 29.0293C46.3059 29.0608 45.4764 29.1239 44.6887 29.2118C44.6002 29.9254 44.4769 30.6158 44.319 31.2827C45.27 31.341 46.2727 31.4434 47.3469 31.6051C47.7052 31.6584 47.9528 31.9936 47.8983 32.3531C47.845 32.7114 47.5097 32.9579 47.1514 32.904C46.0147 32.7328 44.959 32.6309 43.9594 32.5787C43.7576 33.2089 43.5219 33.8157 43.2525 34.3987C44.5277 34.6333 45.8777 34.957 47.352 35.4218C47.6987 35.5326 47.8901 35.9002 47.7804 36.2464C47.6715 36.592 47.3027 36.7838 46.9564 36.6748C45.39 36.1807 43.9648 35.8518 42.6182 35.6209C41.9855 36.7129 41.2195 37.7097 40.3214 38.6083C36.7298 42.2033 31.0825 44.0983 23.9909 44.0902C16.829 44.0827 11.2827 42.205 7.70602 38.621C6.80248 37.7151 6.02534 36.7004 5.37795 35.5797C4.03168 35.8076 2.60642 36.1333 1.03953 36.6238C0.797739 36.6993 0.544914 36.628 0.377334 36.4603C0.305441 36.3879 0.248611 36.298 0.216137 36.1931C0.107698 35.8468 0.300795 35.4792 0.646971 35.3702C2.12388 34.9079 3.47551 34.5869 4.75203 34.3551C4.48461 33.7716 4.25067 33.1639 4.0504 32.5331C3.04761 32.5829 1.9881 32.6826 0.846762 32.8517C0.63222 32.8835 0.426945 32.8082 0.284883 32.6656C0.188621 32.5693 0.121936 32.4429 0.100478 32.2985C0.0471332 31.9395 0.295312 31.6056 0.653665 31.5529C1.73269 31.3926 2.73931 31.2922 3.69373 31.2361C3.53722 30.5686 3.41513 29.878 3.32763 29.1654C2.53908 29.0754 1.7084 29.0105 0.822756 28.9769C0.650543 28.9699 0.495716 28.8975 0.382643 28.7843C0.258553 28.6596 0.184337 28.4852 0.191294 28.2949C0.205208 27.9331 0.510803 27.6502 0.873204 27.6641C1.69402 27.6953 2.46833 27.7522 3.20581 27.8299C3.17499 27.3236 3.16047 26.8069 3.16228 26.2804C3.15793 23.5371 3.59257 21.0784 4.46007 18.9225C2.77628 14.9649 1.28756 8.51035 1.84004 5.71395C1.95833 5.05175 2.20304 4.56988 2.54515 4.30083C3.54902 3.42827 5.76864 3.52937 14.8442 9.81307C17.5242 8.95475 20.6094 8.51584 24.0308 8.51984C24.1765 8.51984 24.3139 8.52034 24.4513 8.52846C25.8598 8.54819 27.2137 8.64212 28.4761 8.80511ZM6.78887 35.3702C7.94395 35.2217 9.0542 35.1315 10.1637 35.0525C10.5249 35.027 10.7981 34.7127 10.772 34.3509C10.7464 33.989 10.4321 33.717 10.0703 33.7426C9.88641 33.7556 9.70244 33.7691 9.51833 33.783C15.6272 31.0014 20.6683 26.8315 24.0126 21.7915C27.3457 26.8392 32.3776 31.0203 38.4805 33.8152C38.2975 33.8009 38.1148 33.7872 37.9321 33.7738C37.5702 33.7471 37.2554 34.0191 37.2288 34.3804C37.2143 34.5787 37.2885 34.7624 37.419 34.893C37.5268 35.0007 37.6723 35.0721 37.8359 35.0837C38.9461 35.1654 40.0571 35.258 41.213 35.4093C40.6934 36.2313 40.0876 36.9889 39.3965 37.6806C36.0559 41.0223 30.7305 42.7846 23.9954 42.7771C13.739 42.766 8.98625 38.8522 6.78887 35.3702Z" fill="black" fill-opacity="0.2"/>
</svg>
